# xmcd
#
# Track frame offsets:
#	150
#	18582
#	33162
#	52288
#	70482
#	81655
#	103761
#	127871
#	148065
#	170273
#	184615
#	193349
#	212406
#	231643
#	244268
#
# Disc length: 3457 seconds
#
# Revision: 2
# Processed by: cddbd v1.5.2PL0 Copyright (c) Steve Scherf et al.
# Submitted via: EZCDAudioConverter 2.1.7.1
#
DISCID=e40d7f0f
DTITLE=V/A - Love Will Tear You Apart
DYEAR=2007
DGENRE=MOJO
TTITLE0=Sparklehorse - Shade And Honey
TTITLE1=Jim Reid - I'm Stranded
TTITLE2=Nina Simone - Little Girl Blue
TTITLE3=Jarvis Cocker - Baby's Coming Back To Me
TTITLE4=Chris Farlowe - I Just Don't Know What To Do With Myself
TTITLE5=Townes Van Zandt and Willie Nelson - Marie
TTITLE6=Elbow - Scattered Black and Whites
TTITLE7=Elliott Smith - Twilight
TTITLE8=Susanna and The Magical Orchestra - Love Wil Tear Us Apart
TTITLE9=Jon Auer - Green Eyes
TTITLE10=Jane Weaver - Once You'd Given Me Up
TTITLE11=Galaxie 500 - Sorry
TTITLE12=Buffseeds - Sparkle Me
TTITLE13=Ivy League - My World Fell Down
TTITLE14=Thirteen Senses - Follow Me
EXTD=
EXTT0=
EXTT1=
EXTT2=
EXTT3=
EXTT4=
EXTT5=
EXTT6=
EXTT7=
EXTT8=
EXTT9=
EXTT10=
EXTT11=
EXTT12=
EXTT13=
EXTT14=
PLAYORDER=
